<svg width="18" height="16" viewBox="0 0 18 16" fill="none" xmlns="http://www.w3.org/2000/svg">
<path d="M17.5833 9.79327V15.9728H13.8152V10.2061C13.8152 8.75862 13.2701 7.77077 11.9056 7.77077C10.8647 7.77077 10.244 8.43602 9.97146 9.08122C9.873 9.31188 9.84662 9.63281 9.84662 9.95374V15.9728H6.07677C6.07677 15.9728 6.12776 6.20792 6.07677 5.19667H9.84662V6.72274L9.82201 6.75784H9.84662V6.72441C10.3477 5.98896 11.241 4.9426 13.2437 4.9426C15.7229 4.9426 17.5833 6.48372 17.5833 9.79327ZM2.13285 0C0.843996 0 0 0.80566 0 1.86204C0 2.89837 0.81938 3.72576 2.08362 3.72576H2.10823C3.42346 3.72576 4.24108 2.8967 4.24108 1.86204C4.21646 0.80566 3.42346 0 2.13285 0ZM0.223307 15.9728H3.99316V5.19667H0.223307V15.9728Z" fill="black" fill-opacity="0.64"/>
</svg>
