<svg width="26" height="26" viewBox="0 0 26 26" fill="none" xmlns="http://www.w3.org/2000/svg">
<path d="M9.685 20.2637C11.0574 20.2723 12.4179 20.0084 13.6875 19.4872C14.9572 18.9659 16.1107 18.1978 17.0811 17.2273C18.0516 16.2569 18.8197 15.1034 19.341 13.8337C19.8622 12.5641 20.1261 11.2036 20.1175 9.8312V9.35182C20.8289 8.83059 21.4447 8.19009 21.9375 7.4587C21.2676 7.75168 20.5588 7.94599 19.8331 8.03557C20.6025 7.57714 21.1798 6.85555 21.4581 6.00432C20.7411 6.43449 19.9549 6.7369 19.1344 6.89807C18.5818 6.30931 17.8506 5.91905 17.0539 5.7877C16.2573 5.65634 15.4395 5.7912 14.7272 6.17142C14.0148 6.55163 13.4477 7.156 13.1134 7.89101C12.7792 8.62602 12.6965 9.4507 12.8781 10.2374C11.4205 10.1659 9.99433 9.78815 8.69241 9.1288C7.3905 8.46944 6.24206 7.54326 5.32188 6.41057C4.85787 7.2159 4.71723 8.16746 4.92843 9.07258C5.13963 9.97771 5.68687 10.7688 6.45937 11.2856C5.8895 11.2636 5.33281 11.1077 4.83437 10.8306V10.8712C4.82931 11.7128 5.11284 12.5307 5.6377 13.1887C6.16256 13.8466 6.89705 14.3048 7.71875 14.4868C7.18871 14.6294 6.63349 14.6516 6.09375 14.5518C6.33164 15.2696 6.78574 15.8962 7.39379 16.3456C8.00183 16.7951 8.73404 17.0455 9.49 17.0624C8.19748 18.1029 6.59107 18.6756 4.93188 18.6874C4.64096 18.679 4.35073 18.6546 4.0625 18.6143C5.7419 19.6843 7.69373 20.2484 9.685 20.2393" fill="black" fill-opacity="0.64"/>
</svg>
