<svg width="21" height="20" viewBox="0 0 21 20" fill="none" xmlns="http://www.w3.org/2000/svg">
<path d="M16.8027 5.69988C14.4027 1.99988 9.50271 0.899878 5.70271 3.19988C2.00271 5.49988 0.802709 10.4999 3.20271 14.1999L3.40271 14.4999L2.60271 17.4999L5.60271 16.6999L5.90271 16.8999C7.20271 17.5999 8.60271 17.9999 10.0027 17.9999C11.5027 17.9999 13.0027 17.5999 14.3027 16.7999C18.0027 14.3999 19.1027 9.49988 16.8027 5.69988ZM14.7027 13.3999C14.3027 13.9999 13.8027 14.3999 13.1027 14.4999C12.7027 14.4999 12.2027 14.6999 10.2027 13.8999C8.50271 13.0999 7.10271 11.7999 6.10271 10.2999C5.50271 9.59988 5.20271 8.69988 5.10271 7.79988C5.10271 6.99988 5.40271 6.29988 5.90271 5.79988C6.10271 5.59988 6.30271 5.49988 6.50271 5.49988H7.00271C7.20271 5.49988 7.40271 5.49988 7.50271 5.89988C7.70271 6.39988 8.20271 7.59988 8.20271 7.69988C8.30271 7.79988 8.30271 7.99988 8.20271 8.09988C8.30271 8.29988 8.20271 8.49988 8.10271 8.59988C8.00271 8.69988 7.90271 8.89988 7.80271 8.99988C7.60271 9.09988 7.50271 9.29988 7.60271 9.49988C8.00271 10.0999 8.50271 10.6999 9.00271 11.1999C9.60271 11.6999 10.2027 12.0999 10.9027 12.3999C11.1027 12.4999 11.3027 12.4999 11.4027 12.2999C11.5027 12.0999 12.0027 11.5999 12.2027 11.3999C12.4027 11.1999 12.5027 11.1999 12.7027 11.2999L14.3027 12.0999C14.5027 12.1999 14.7027 12.2999 14.8027 12.3999C14.9027 12.6999 14.9027 13.0999 14.7027 13.3999Z" fill="black" fill-opacity="0.64"/>
</svg>
